<svg xmlns="http://www.w3.org/2000/svg" viewBox="0 0 480 480" width="480" height="480">
  <defs>
    <marker id="arrow" viewBox="0 0 10 10" refX="5" refY="5" markerWidth="6" markerHeight="6" orient="auto-start-reverse">
      <path d="M 0 0 L 10 5 L 0 10 z" fill="black" />
    </marker>
    <marker id="arrow-sm" viewBox="0 0 10 10" refX="5" refY="5" markerWidth="5" markerHeight="5" orient="auto">
      <path d="M 0 0 L 10 5 L 0 10 z" fill="red" />
    </marker>
  </defs>

  <!-- Background -->
  <rect width="100%" height="100%" fill="white" />

  <!-- Z-axis (horizontal at mid y, -1 to 1) -->
  <line x1="60" y1="230" x2="420" y2="230" stroke="black" stroke-width="2" marker-end="url(#arrow)" marker-start="url(#arrow)" />
  <text x="425" y="235" font-family="Arial, sans-serif" font-size="16" font-style="italic">Z</text>

  <!-- Y-axis (vertical, 0 to 1) -->
  <line x1="240" y1="380" x2="240" y2="80" stroke="black" stroke-width="2" marker-end="url(#arrow)" />
  <text x="245" y="75" font-family="Arial, sans-serif" font-size="16" font-style="italic">Y</text>

  <!-- Origin label -->
  <text x="225" y="250" font-family="Arial, sans-serif" font-size="14">(0, 0.5)</text>

  <!-- Y-axis range labels -->
  <text x="245" y="380" font-family="Arial, sans-serif" font-size="12">1</text>
  <text x="245" y="85" font-family="Arial, sans-serif" font-size="12">0</text>

  <!-- Z-axis range labels -->
  <text x="55" y="250" font-family="Arial, sans-serif" font-size="12">-1</text>
  <text x="410" y="250" font-family="Arial, sans-serif" font-size="12">1</text>

  <!-- Dashed line from wrist (0, 0.5) to (z, y) at (1, 0) -->
  <line x1="240" y1="230" x2="420" y2="80" stroke="black" stroke-width="2" stroke-dasharray="5,5" />

  <!-- Dashed line from wrist (0, 0.5) to (-z, y) at (-1, 0) -->
  <line x1="240" y1="230" x2="60" y2="80" stroke="black" stroke-width="2" stroke-dasharray="5,5" />

  <!-- Dot at wrist (0, 0.5) -->
  <circle cx="240" cy="230" r="5" fill="black" />

  <!-- Dot at (z, y) endpoint -->
  <circle cx="420" cy="80" r="5" fill="black" />

  <!-- Dot at (-z, y) endpoint -->
  <circle cx="60" cy="80" r="5" fill="black" />

  <!-- Label "(wrist)" at center point -->
  <text x="245" y="220" font-family="Arial, sans-serif" font-size="14">(wrist)</text>

  <!-- Label "(depth)" at positive Z edge -->
  <text x="400" y="220" font-family="Arial, sans-serif" font-size="14">(depth)</text>

  <!-- Label "(z, y)" near right endpoint -->
  <text x="425" y="75" font-family="Arial, sans-serif" font-size="14">(z, y)</text>

  <!-- Label "(-z, y)" near left endpoint -->
  <text x="10" y="75" font-family="Arial, sans-serif" font-size="14">(-z, y)</text>

  <!-- Angle arc: clockwise 60° from Y-axis to right diagonal (reaches diagonal line) -->
  <path d="M 240 160 A 70 70 0 0 1 293.8 185.2" fill="none" stroke="red" stroke-width="1.5" marker-end="url(#arrow-sm)" />
  <text x="260" y="155" font-family="Arial, sans-serif" font-size="12">60°</text>
  <text x="260" y="142" font-family="Arial, sans-serif" font-size="10">(Ø=1.047)</text>

  <!-- Angle arc: counter-clockwise -60° from Y-axis to left diagonal (reaches diagonal line) -->
  <path d="M 240 160 A 70 70 0 0 0 186.2 185.2" fill="none" stroke="red" stroke-width="1.5" marker-end="url(#arrow-sm)" />
  <text x="170" y="155" font-family="Arial, sans-serif" font-size="12">-60°</text>
  <text x="170" y="142" font-family="Arial, sans-serif" font-size="10">(Ø=-1.047)</text>

  <!-- Camera vertical line on left side -->
  <line x1="25" y1="80" x2="25" y2="380" stroke="black" stroke-width="2" stroke-dasharray="5,5" />
  <text x="10" y="230" font-family="Arial, sans-serif" font-size="14" transform="rotate(-90 10 230)">camera</text>
</svg>
